<?xml version="1.0" standalone="no"?>
<!DOCTYPE svg PUBLIC "-//W3C//DTD SVG 20010904//EN"
 "http://www.w3.org/TR/2001/REC-SVG-20010904/DTD/svg10.dtd">
<svg version="1.0" xmlns="http://www.w3.org/2000/svg"
 width="1228.000000pt" height="1228.000000pt" viewBox="0 0 1228.000000 1228.000000"
 preserveAspectRatio="xMidYMid meet">
<metadata>
Created by potrace 1.11, written by Peter Selinger 2001-2013
</metadata>
<g transform="translate(0.000000,1228.000000) scale(0.100000,-0.100000)"
fill="#000000" stroke="none">
<path d="M0 6140 l0 -6130 2351 0 2351 0 -6 27 c-11 46 -27 483 -20 558 7 92
-11 264 -35 323 -18 43 -27 78 -47 187 -5 22 -8 77 -9 121 0 45 -5 88 -11 95
-15 21 -51 116 -68 184 -9 33 -25 92 -35 130 -16 57 -19 90 -15 175 3 57 8
108 10 112 8 13 34 9 32 -4 -2 -6 11 -16 27 -22 35 -13 57 -31 48 -40 -4 -3 5
-19 19 -34 14 -15 35 -49 48 -77 12 -27 38 -66 56 -85 33 -34 97 -110 139
-165 11 -15 27 -34 36 -43 8 -10 45 -56 82 -104 36 -47 103 -125 149 -173 46
-48 89 -99 95 -113 7 -15 26 -56 42 -92 22 -48 31 -85 35 -142 4 -59 10 -85
28 -110 13 -18 26 -34 29 -36 6 -2 68 -64 129 -127 11 -12 20 -26 20 -32 0 -6
4 -13 9 -15 11 -4 57 -78 99 -158 33 -64 33 -67 27 -152 -4 -48 -4 -110 0
-137 l7 -51 1029 0 c679 0 1029 3 1029 10 0 6 -4 10 -9 10 -5 0 -11 10 -13 22
-3 21 -9 23 -73 26 -52 2 -73 7 -83 20 -7 9 -18 16 -23 15 -5 -2 -9 4 -9 12 0
8 6 15 14 15 10 0 16 17 21 52 13 110 12 108 60 108 44 0 115 24 115 39 0 5
14 14 30 21 17 7 38 26 47 41 10 16 21 29 25 29 4 0 8 19 8 43 0 75 -57 109
-137 82 -87 -29 -158 -91 -174 -150 -7 -26 -15 -35 -27 -33 -17 3 -47 51 -34
56 14 4 1 82 -14 82 -8 0 -14 5 -14 11 0 17 -78 90 -85 79 -3 -6 -14 -10 -23
-10 -22 0 -53 81 -40 103 9 18 -19 87 -36 87 -6 0 -20 3 -32 6 -14 4 -28 -3
-45 -20 -30 -32 -34 -32 -37 -1 -1 15 4 28 13 31 8 4 15 12 15 19 0 8 8 11 23
9 12 -3 2 5 -22 17 -34 18 -47 20 -61 11 -35 -22 -41 21 -9 62 21 26 22 27 43
9 11 -9 16 -11 9 -4 -8 9 -9 21 -2 39 15 40 -10 58 -91 66 l-68 7 -16 45 c-11
34 -12 51 -5 68 12 25 -3 58 -44 98 -9 10 -17 27 -17 38 0 15 -7 20 -26 20
-16 0 -34 10 -45 24 -18 23 -21 23 -48 10 -24 -12 -34 -12 -70 1 -41 14 -42
14 -53 -10 -6 -14 -15 -25 -19 -25 -4 0 -13 -16 -19 -35 -10 -31 -16 -35 -45
-35 -34 0 -95 -43 -95 -67 0 -7 -4 -13 -9 -13 -5 0 -12 -9 -16 -19 -4 -12 -12
-18 -21 -14 -9 3 -14 -1 -14 -12 0 -9 -14 -37 -30 -62 -17 -24 -30 -55 -30
-68 0 -14 -8 -29 -19 -34 -21 -12 -54 -76 -49 -93 6 -17 -100 -120 -144 -140
-41 -18 -39 -18 -262 20 -88 15 -104 21 -135 51 l-36 33 3 106 c4 133 -5 203
-27 209 -9 2 -29 22 -46 44 -16 22 -58 61 -92 86 -34 25 -73 62 -87 83 -14 21
-45 53 -70 71 -35 25 -46 39 -46 59 0 15 -12 40 -26 56 -72 82 -68 113 30 209
36 36 77 83 92 105 15 22 30 40 35 40 4 0 10 8 13 18 3 9 16 22 28 27 12 6 25
21 28 35 4 18 14 26 34 30 34 6 47 33 35 73 -6 21 -4 29 6 34 8 3 13 9 10 13
-9 14 5 38 25 43 11 3 21 -1 24 -10 4 -8 13 -13 21 -9 9 3 15 -1 15 -10 0 -11
6 -14 16 -10 9 3 18 6 20 6 2 0 4 7 4 15 0 8 5 15 11 15 6 0 8 -8 4 -19 -8
-25 21 -48 43 -34 9 5 27 16 39 23 18 12 26 12 48 0 16 -9 29 -10 33 -5 13 18
71 55 85 55 8 0 17 -9 20 -20 6 -23 55 -28 75 -7 20 19 164 18 179 -2 10 -14
13 -14 31 2 16 14 21 15 25 4 3 -9 23 -14 56 -16 55 -2 101 -16 113 -34 5 -8
14 -7 32 3 22 11 30 11 52 0 19 -11 27 -11 33 -2 9 14 109 42 127 35 6 -2 15
0 19 6 9 16 35 13 35 -4 0 -22 7 -19 53 20 22 19 51 35 64 35 13 0 40 7 60 15
19 8 46 15 59 15 15 0 24 6 24 15 0 8 15 22 33 30 l32 16 -27 -25 c-43 -38
-36 -49 24 -42 35 5 69 18 105 42 29 19 61 34 70 32 13 -2 19 7 26 37 4 22 10
52 13 66 8 37 -11 44 -44 19 l-27 -22 -9 26 c-8 21 -14 25 -30 19 -12 -4 -33
-7 -47 -7 -15 1 -26 -4 -26 -10 1 -80 -4 -107 -20 -104 -11 2 -17 11 -15 21 4
21 -17 22 -44 2 -25 -19 -34 -19 -34 0 0 8 5 15 11 15 5 0 7 5 4 10 -3 6 1 10
9 10 9 0 16 5 16 10 0 6 5 10 11 10 6 0 18 7 27 17 23 22 81 146 74 158 -3 5
-7 4 -10 -3 -2 -7 -17 -27 -33 -45 -16 -17 -29 -39 -29 -49 0 -9 -5 -29 -12
-45 -11 -26 -13 -21 -23 62 -13 100 -11 101 -57 -22 -23 -63 -47 -88 -33 -35
10 38 15 101 8 118 -5 13 -8 12 -24 -2 -11 -9 -19 -23 -19 -31 0 -7 -5 -13
-11 -13 -5 0 -7 4 -4 10 3 5 2 18 -4 27 -9 16 -11 16 -19 -7 -5 -14 -7 -39 -5
-56 4 -27 -28 -114 -42 -114 -2 0 -2 33 1 73 4 71 4 71 -11 39 -15 -32 -35
-36 -35 -7 0 7 -6 16 -12 18 -10 4 -10 6 0 6 14 1 17 31 2 31 -5 0 -10 8 -10
18 -1 12 -5 9 -16 -10 -19 -36 -22 -35 -16 2 2 17 8 30 14 30 9 0 3 52 -10 95
-5 16 -7 14 -12 -13 -7 -44 -23 -45 -30 -1 -4 19 -16 45 -28 57 -24 24 -25 23
-22 -30 1 -20 -6 -48 -15 -62 -19 -29 -12 -54 11 -35 11 9 14 8 14 -7 0 -11 3
-29 6 -42 5 -18 2 -22 -15 -22 -18 0 -21 -6 -21 -45 0 -46 -17 -62 -27 -25 -6
22 -29 27 -36 8 -3 -7 -6 8 -6 34 -1 49 -15 72 -24 38 -3 -11 -9 -20 -14 -20
-9 0 -40 62 -58 115 -6 16 -8 17 -13 5 -23 -66 -22 -64 -36 -44 -20 27 -28 13
-15 -25 6 -17 8 -38 5 -46 -8 -21 -36 -19 -36 3 0 21 -29 52 -48 52 -7 0 -12
9 -12 19 0 11 -4 23 -10 26 -5 3 -10 -2 -10 -13 0 -10 -14 -31 -30 -45 -17
-15 -30 -34 -30 -42 0 -22 -43 -100 -48 -87 -2 7 0 25 6 40 5 15 6 50 2 77
l-6 50 -16 -37 c-10 -21 -18 -38 -20 -38 -2 0 -2 51 -1 113 2 104 2 110 -12
82 -8 -16 -14 -45 -15 -63 0 -28 -21 -84 -37 -102 -10 -11 -21 26 -16 55 7 42
-19 91 -52 99 -14 4 -25 14 -26 24 -1 9 -2 53 -3 97 -1 87 -22 148 -37 110
-12 -32 -10 -55 6 -55 11 0 14 -14 12 -67 -1 -38 2 -85 7 -105 7 -32 6 -38 -8
-38 -9 0 -16 7 -16 15 0 8 -4 15 -9 15 -10 0 -21 -34 -21 -65 0 -27 -41 -125
-53 -125 -4 0 -5 10 -1 23 8 24 29 100 45 157 14 52 19 130 8 130 -5 0 -9 -13
-9 -30 0 -39 -11 -38 -29 1 -11 25 -11 35 -1 55 8 13 17 24 22 24 4 0 8 11 8
25 0 18 -5 25 -20 25 -11 0 -20 3 -20 8 0 25 43 156 55 169 8 8 15 19 15 25 0
18 -69 -54 -96 -99 -42 -70 -57 -54 -25 26 14 34 15 49 7 67 -6 13 -14 24 -18
24 -11 0 -10 -8 2 -30 8 -15 4 -26 -18 -52 -16 -18 -36 -44 -45 -58 l-17 -24
0 43 c0 30 -6 48 -17 57 -17 13 -17 13 0 14 21 0 23 26 2 34 -8 3 -15 14 -15
24 0 14 -8 19 -34 20 -35 1 -46 -13 -46 -65 0 -14 -6 -23 -15 -23 -11 0 -15
12 -15 45 0 41 -2 45 -24 45 -13 0 -27 -7 -30 -16 -4 -9 -13 -14 -21 -10 -8 3
-15 2 -15 -2 0 -4 -10 -12 -22 -17 -19 -8 -24 -20 -28 -65 -6 -64 -22 -69 -32
-9 -6 31 -3 47 10 65 9 13 20 24 24 24 4 0 19 5 35 11 l28 11 -28 15 c-24 12
-28 19 -23 39 5 20 3 24 -11 22 -27 -5 -30 32 -3 39 19 5 21 11 17 40 -10 57
-40 82 -52 43 -9 -28 -25 -25 -25 5 0 28 -12 32 -33 10 -17 -16 -27 -10 -27
16 0 10 -8 23 -17 28 -17 10 -16 12 7 30 14 11 36 26 50 33 14 7 28 17 32 23
22 29 -14 180 -42 180 -20 0 -30 17 -35 62 -5 41 6 63 40 78 20 8 19 9 -2 12
-12 2 -24 11 -27 19 -9 23 3 62 21 68 22 9 34 -3 27 -28 -3 -14 2 -31 14 -46
l19 -24 7 22 c4 12 15 22 24 22 12 0 13 -3 4 -12 -19 -19 -14 -46 13 -64 28
-18 45 -13 27 9 -9 10 -8 17 1 26 8 8 9 14 1 19 -6 4 -14 27 -18 52 -4 24 -14
52 -22 61 -18 20 -9 69 12 69 8 0 19 12 25 27 12 33 0 43 -58 43 -41 0 -42 -1
-45 -37 -3 -37 -4 -38 -40 -36 -21 1 -38 -1 -39 -5 0 -4 -2 -16 -5 -27 -2 -11
-5 -33 -6 -48 0 -16 -9 -34 -20 -40 -10 -7 -18 -19 -18 -29 0 -9 -5 -20 -11
-24 -6 -3 -9 -15 -6 -25 3 -11 1 -19 -4 -19 -12 0 -12 37 1 59 13 25 -8 50
-42 53 -18 2 -28 8 -28 18 0 8 -6 27 -14 41 -7 14 -11 40 -8 57 2 19 -3 47
-13 68 -9 20 -13 39 -9 43 5 3 18 23 28 43 15 30 16 40 7 52 -10 12 -9 22 6
48 10 18 24 41 32 50 11 15 11 19 -2 32 -8 8 -17 12 -21 9 -9 -9 -7 3 4 29 5
13 14 42 20 65 6 23 28 64 50 92 22 28 40 60 40 71 0 51 102 98 113 53 3 -16
5 -16 11 2 24 66 63 138 79 147 28 14 33 1 10 -25 -37 -40 -58 -98 -31 -80 7
4 27 8 45 9 26 1 32 -3 36 -25 3 -14 2 -28 -2 -31 -5 -3 -11 -18 -15 -35 l-8
-30 28 25 c16 14 33 30 40 36 7 6 10 22 7 37 -4 20 2 32 23 51 37 32 46 32 38
1 -5 -21 -3 -25 16 -25 14 0 24 -8 27 -20 7 -27 27 -20 31 11 4 28 41 71 53
63 5 -3 9 0 9 5 0 6 9 11 20 11 11 0 20 -7 20 -15 0 -14 29 -35 48 -35 5 0 13
10 17 23 7 20 8 19 12 -10 2 -19 10 -33 17 -33 19 0 39 27 33 45 -4 8 0 31 7
52 12 35 14 36 20 15 5 -13 3 -36 -4 -53 -7 -16 -9 -33 -5 -37 10 -10 45 36
45 60 0 10 12 44 26 74 20 42 25 64 20 92 -3 20 -6 45 -7 55 0 19 -19 24 -19
5 0 -6 -3 -9 -6 -5 -4 3 -19 0 -35 -9 -25 -13 -29 -13 -29 0 0 8 -3 21 -6 29
-3 8 2 17 12 21 13 5 15 2 11 -14 -4 -18 -2 -20 16 -14 12 4 24 11 26 17 2 5
12 18 22 28 19 19 19 19 -1 19 -11 0 -29 -5 -40 -12 -10 -7 -22 -9 -26 -5 -13
12 14 32 70 51 49 17 55 22 50 40 -11 36 -10 40 11 42 11 1 27 5 36 9 10 3 20
1 24 -5 5 -8 14 -6 32 6 20 13 27 13 33 3 7 -10 11 -10 24 0 16 13 72 30 116
36 14 1 26 4 28 5 1 1 6 3 11 4 19 2 23 16 7 22 -10 4 -16 17 -16 35 0 16 -4
29 -10 29 -5 0 -10 8 -10 19 0 19 -92 204 -153 308 -21 34 -37 66 -37 71 0 5
-10 22 -22 38 -24 30 -25 34 -28 130 -2 63 20 125 54 153 9 8 16 22 16 32 0
10 9 23 20 29 15 8 20 21 20 50 0 22 7 45 16 54 8 9 17 26 18 38 6 44 19 83
45 133 28 52 36 102 20 121 -6 7 -4 16 6 24 20 16 19 39 -2 62 -10 11 -18 36
-20 56 -1 20 -4 57 -7 82 -3 25 -8 63 -10 85 -3 22 -8 56 -11 75 -4 19 -2 55
5 80 36 147 31 300 -15 435 -14 39 -26 79 -28 91 -1 12 -12 34 -22 50 -11 16
-24 36 -30 45 -46 75 -50 80 -70 74 -11 -4 -38 -11 -60 -16 -22 -6 -42 -14
-46 -20 -3 -5 -16 -1 -31 11 -31 24 -44 25 -52 5 -3 -9 0 -15 10 -15 9 0 14
-5 12 -11 -2 -6 -7 -10 -11 -10 -4 1 -14 1 -22 1 -8 0 -15 9 -15 20 0 24 -18
27 -27 4 -4 -10 -13 -14 -29 -10 -12 3 -26 1 -29 -5 -4 -6 -13 -8 -21 -5 -8 3
-26 0 -40 -6 -23 -11 -28 -9 -45 12 -10 14 -19 20 -19 13 0 -8 -17 -11 -56
-10 -50 3 -57 0 -65 -20 -10 -28 -49 -26 -59 3 -7 18 -7 17 -18 -3 -17 -31
-17 -30 36 -57 26 -13 59 -37 73 -52 15 -16 42 -42 62 -57 22 -19 37 -40 40
-60 8 -48 26 -115 37 -135 20 -38 40 -116 31 -125 -5 -5 -7 -16 -4 -23 7 -19
-7 -17 -41 5 -17 11 -33 18 -37 16 -4 -3 -35 8 -70 24 -35 16 -83 32 -106 36
-22 3 -49 13 -60 20 -10 8 -33 15 -50 15 -18 0 -33 4 -33 9 0 5 -19 8 -42 6
-24 -2 -69 1 -101 6 -47 8 -62 6 -82 -7 -21 -14 -32 -15 -68 -6 -33 9 -46 8
-64 -3 -12 -8 -40 -15 -62 -15 -22 0 -42 -4 -46 -9 -3 -6 -27 -13 -53 -17 -26
-3 -56 -14 -67 -24 -12 -10 -34 -17 -55 -16 -31 1 -35 4 -32 25 1 13 9 38 17
56 9 17 17 45 18 60 2 27 0 28 -43 27 -25 -1 -59 -4 -76 -8 l-31 -6 5 51 c4
41 2 51 -11 51 -49 0 -237 -250 -237 -316 0 -8 -11 -37 -25 -66 -14 -28 -25
-69 -25 -89 0 -47 -8 -69 -26 -69 -22 0 -17 -20 11 -46 32 -29 32 -39 2 -19
-23 15 -24 15 -25 -16 -1 -31 0 -31 39 -25 22 4 50 15 62 26 26 25 37 25 37 0
0 -16 7 -20 34 -20 24 0 44 -8 63 -26 15 -14 40 -28 56 -31 16 -3 31 -12 34
-20 3 -8 12 -12 20 -9 7 3 21 -2 31 -12 21 -20 36 -23 112 -27 30 -1 66 -6 80
-10 24 -7 24 -6 -5 19 -16 14 -39 25 -51 26 -32 0 -51 22 -58 67 -5 34 -3 41
8 37 8 -3 17 -15 20 -27 6 -26 42 -51 51 -37 3 6 1 10 -5 10 -7 0 -9 12 -4 36
7 39 -12 63 -53 64 -14 0 -24 9 -31 30 -12 33 -5 42 37 46 13 2 31 10 39 18
14 14 13 16 -9 25 -14 5 -31 16 -38 25 -15 18 -7 67 11 63 7 -1 12 3 13 10 0
11 47 53 59 53 8 0 1 -58 -7 -67 -11 -10 5 -57 27 -79 12 -12 31 -33 43 -48
20 -24 28 -26 95 -26 85 0 204 23 227 44 29 25 120 64 140 59 17 -4 19 2 22
47 2 28 1 57 -3 64 -3 6 -8 34 -10 61 l-3 50 32 -1 c55 -3 141 -52 204 -116
32 -33 59 -66 59 -74 0 -20 103 -19 120 0 6 8 18 12 26 9 19 -7 8 -94 -12
-106 -18 -10 -46 -76 -38 -89 3 -5 1 -15 -5 -22 -9 -10 -8 -15 4 -20 9 -3 15
0 15 9 0 8 4 15 9 15 16 0 -2 -55 -28 -81 -14 -14 -39 -51 -55 -81 -26 -49
-27 -58 -15 -75 17 -25 29 -28 41 -11 5 8 5 -5 1 -32 -3 -25 -7 -79 -7 -120
-1 -45 -6 -79 -13 -85 -9 -7 -9 -23 -2 -60 7 -39 6 -52 -4 -60 -8 -5 -14 -25
-15 -44 0 -18 -5 -38 -11 -44 -5 -5 -7 -23 -4 -40 5 -26 4 -29 -16 -22 -30 9
-29 -23 2 -35 20 -8 20 -9 2 -9 -17 -1 -20 -9 -22 -58 -1 -31 -7 -61 -13 -67
-7 -7 -10 -6 -10 2 0 17 -17 15 -24 -4 -4 -11 1 -18 14 -21 21 -5 30 -53 10
-53 -5 0 -10 9 -10 20 0 11 -4 20 -10 20 -11 0 -13 -11 -10 -51 0 -14 -8 -43
-19 -63 -16 -27 -22 -58 -23 -121 -2 -47 -7 -85 -12 -85 -5 0 -3 -6 3 -14 10
-12 8 -17 -8 -26 -26 -13 -27 -45 -4 -91 10 -19 16 -42 14 -52 -1 -12 5 -21
19 -24 19 -5 21 -11 16 -42 -3 -20 -6 -42 -6 -48 0 -7 -10 -13 -22 -14 -22 -1
-22 -1 2 -8 14 -5 32 -4 41 0 12 6 21 2 33 -16 19 -29 21 -48 4 -42 -7 2 -11
13 -10 23 3 15 1 16 -9 7 -10 -10 -10 -21 1 -55 13 -43 13 -43 22 -16 6 17 14
25 24 21 16 -6 19 -59 4 -68 -6 -4 -7 -12 -3 -18 4 -7 -2 -5 -12 3 -17 14 -18
14 -6 -7 14 -27 4 -31 -14 -6 -16 22 -33 9 -41 -32 -5 -28 -11 -35 -29 -35
-13 0 -32 10 -42 23 -16 21 -53 26 -53 8 0 -13 -48 -31 -65 -25 -18 7 -20 -7
-2 -25 10 -11 6 -13 -21 -7 -36 6 -62 -10 -62 -38 0 -9 -4 -16 -10 -16 -17 0
-11 26 10 45 26 24 25 42 -2 51 -17 5 -29 -1 -56 -31 -26 -28 -40 -36 -58 -32
-25 4 -34 -8 -12 -15 9 -3 8 -9 -4 -21 -23 -23 -48 -22 -48 2 0 25 -16 36 -27
17 -4 -7 -17 -15 -28 -17 -12 -3 -24 -16 -29 -36 -7 -24 -17 -34 -39 -39 -19
-4 -27 -10 -23 -20 8 -20 -20 -29 -39 -14 -13 10 -15 8 -15 -13 0 -17 -7 -28
-20 -32 -11 -4 -18 -10 -16 -14 3 -4 -4 -15 -15 -24 -10 -9 -19 -24 -19 -32 0
-8 -7 -15 -15 -15 -17 0 -36 -39 -27 -55 4 -5 7 -25 8 -43 1 -30 0 -31 -17
-16 -10 9 -16 21 -13 25 3 5 -1 9 -9 9 -8 0 -17 -6 -20 -14 -3 -8 -15 -14 -26
-13 -23 1 -28 13 -8 20 6 3 0 6 -16 6 -15 1 -26 -2 -25 -6 1 -5 -4 -19 -11
-32 -12 -21 -11 -23 3 -18 10 4 16 1 16 -8 0 -11 -8 -13 -30 -9 -29 6 -29 6
-20 -24 6 -22 5 -34 -4 -41 -17 -14 -38 2 -39 33 -1 14 -5 26 -9 26 -5 0 -8 9
-8 20 0 11 5 20 10 20 6 0 10 17 10 38 0 32 -3 38 -22 38 -29 0 -38 -12 -38
-53 0 -63 -9 -66 -51 -15 -27 32 -46 46 -59 44 -11 -2 -20 2 -20 7 0 6 8 11
18 11 9 0 25 7 34 14 17 12 17 14 -4 32 -12 10 -18 13 -14 7 5 -9 2 -11 -8 -7
-12 5 -13 10 -4 24 15 23 4 50 -19 44 -23 -5 -62 71 -45 88 7 7 7 19 1 36 -5
14 -8 31 -5 39 3 7 2 13 -3 13 -5 0 -8 8 -7 17 1 13 -6 18 -24 18 -21 0 -26 6
-28 32 -2 18 4 43 14 58 14 21 14 30 4 55 -7 16 -9 42 -6 57 6 23 5 25 -8 14
-14 -12 -16 -9 -16 21 0 19 -5 39 -12 46 -9 9 -7 16 6 31 14 15 15 21 4 28
-22 14 -52 83 -50 115 2 25 -1 29 -17 23 -19 -6 -31 16 -31 61 0 14 -6 21 -16
20 -9 0 -23 10 -32 24 -16 23 -16 24 3 16 16 -6 18 -5 8 5 -19 19 -17 73 2 65
19 -7 36 24 28 53 -4 17 -11 21 -25 17 -21 -5 -21 2 -3 77 5 19 2 26 -12 30
-17 4 -17 5 0 6 14 1 17 7 13 29 -2 15 -5 29 -6 32 -1 3 -1 13 -1 23 1 9 -5
20 -14 23 -9 4 -13 13 -10 23 2 9 -1 28 -9 42 -11 21 -11 29 0 43 8 12 10 26
4 44 -13 39 -18 112 -9 118 5 2 0 20 -11 39 -16 29 -17 35 -5 45 10 8 12 18 6
29 -4 9 -8 69 -7 134 1 72 -3 121 -9 125 -15 10 -46 72 -35 72 4 0 7 25 6 55
-1 31 0 58 3 61 3 3 6 22 7 42 2 47 7 66 23 85 7 9 11 26 10 39 -2 13 0 28 4
35 4 6 0 18 -8 26 -11 12 -12 17 -2 20 8 4 8 6 0 6 -6 1 -9 10 -6 20 3 11 11
17 19 14 14 -5 13 6 -6 120 -9 56 -3 87 15 87 16 0 24 33 20 80 -1 19 3 46 10
60 7 14 16 43 20 64 4 21 14 40 21 43 17 6 18 29 2 37 -10 5 -10 7 0 12 6 3
12 14 12 24 0 10 -6 20 -12 23 -10 3 -9 12 5 35 9 16 17 36 17 44 0 26 45 97
70 110 14 7 39 21 55 33 17 11 30 19 30 17 0 -2 7 -1 15 2 42 14 94 25 101 20
8 -4 123 31 144 44 18 11 143 17 268 12 16 0 43 8 61 19 18 11 41 18 52 16 10
-2 69 -7 129 -9 61 -3 139 -12 175 -21 36 -9 81 -17 101 -19 20 -2 45 -8 55
-14 21 -11 205 -22 235 -15 32 9 21 40 -24 71 -70 49 -145 125 -149 152 -3 21
-10 26 -52 32 -27 4 -63 17 -80 30 -25 18 -44 23 -96 23 -106 0 -194 -11 -230
-28 -18 -10 -43 -17 -56 -17 -13 0 -25 -4 -28 -9 -3 -4 -20 -11 -37 -15 -18
-3 -48 -16 -68 -28 -20 -13 -42 -21 -49 -20 -8 2 -31 -8 -53 -22 -21 -14 -49
-26 -61 -26 -17 0 -19 -3 -10 -12 18 -18 15 -25 -20 -39 -18 -7 -37 -15 -41
-17 -5 -2 -4 6 3 18 13 25 0 47 -21 34 -9 -5 -8 -10 7 -16 14 -6 13 -7 -8 -3
-15 3 -29 1 -32 -4 -10 -16 -46 0 -46 20 0 16 -8 19 -47 21 -27 0 -54 1 -60 1
-18 -1 -16 32 2 47 8 7 15 18 15 25 0 7 6 18 14 24 8 7 12 20 9 31 -4 14 2 22
21 30 28 10 29 13 26 76 -1 25 5 47 14 56 8 9 12 18 9 22 -3 3 0 12 7 21 7 9
10 27 7 45 -4 16 -2 32 3 35 17 10 11 25 -10 25 -19 0 -24 -10 -21 -37 1 -6
-3 -14 -9 -18 -6 -3 -11 5 -11 19 -2 34 -3 39 -12 54 -5 7 -4 12 2 12 6 0 11
6 11 14 0 8 6 16 13 19 8 3 4 12 -13 26 -21 19 -22 22 -5 16 34 -11 39 -10 40
5 0 8 6 15 14 15 8 0 17 9 21 19 4 14 9 16 14 8 4 -7 23 -12 42 -12 l34 0 0
-62 c-1 -49 -3 -59 -11 -45 -6 10 -8 25 -5 33 3 9 -1 14 -13 14 -14 0 -17 -6
-13 -32 3 -18 10 -36 16 -40 6 -5 2 -8 -11 -8 -17 0 -23 -6 -23 -21 0 -15 4
-19 16 -15 9 4 23 1 30 -5 17 -14 34 -3 34 21 0 15 7 17 53 15 28 -2 43 -1 33
2 -33 9 -79 38 -84 53 -5 13 -3 13 11 1 16 -13 98 -18 117 -6 4 3 10 -1 13 -7
3 -9 11 -6 26 10 12 12 29 22 39 22 13 0 14 2 4 9 -9 5 -13 23 -11 51 2 28 -1
45 -9 48 -6 2 -12 12 -12 23 0 19 -9 23 -42 20 -10 -1 -18 3 -18 8 0 6 6 11
14 11 9 0 12 7 9 20 -3 11 -9 20 -14 20 -5 0 -9 14 -9 30 0 23 -6 33 -25 40
-15 6 -23 15 -19 23 2 7 0 24 -5 38 l-9 24 -10 -25 c-6 -15 -6 -29 -1 -34 5
-6 9 -16 9 -24 0 -8 8 -21 18 -28 16 -12 16 -14 1 -30 -16 -15 -17 -15 -24 5
-8 28 -32 27 -41 -1 -7 -22 -7 -22 -14 -3 -4 11 -2 31 4 44 8 19 8 25 -2 29
-6 2 -12 10 -12 18 0 8 -5 14 -10 14 -6 0 -8 11 -4 25 4 16 0 34 -10 50 -15
22 -15 25 1 34 10 5 14 13 10 17 -4 4 0 15 9 25 9 10 13 23 9 29 -6 9 -10 9
-16 -1 -5 -8 -9 -9 -9 -3 0 6 7 17 15 24 8 7 15 19 15 26 0 29 19 12 26 -22 5
-29 9 -33 16 -20 5 9 19 17 31 17 16 1 17 3 5 6 -22 6 -30 30 -12 37 9 3 27 3
41 0 24 -7 25 -5 19 22 -4 16 -14 33 -23 37 -12 8 -11 12 7 29 15 14 20 28 17
44 -2 14 0 27 4 30 5 3 9 1 9 -5 0 -18 27 -1 38 24 9 20 8 23 -14 28 -13 2
-24 0 -24 -4 0 -5 5 -9 10 -9 6 0 10 -5 10 -11 0 -6 -6 -9 -12 -6 -7 2 -13 15
-13 28 0 18 5 23 20 21 33 -4 105 9 105 19 0 5 -15 9 -34 9 -40 0 -62 21 -48
47 6 10 13 41 16 68 10 85 12 90 41 104 25 12 27 15 12 26 -19 14 -12 25 14
25 10 0 23 9 29 20 6 11 7 20 3 20 -3 0 6 13 22 30 16 16 31 28 33 25 9 -9 41
16 36 28 -6 17 51 40 105 42 25 0 46 6 49 13 2 7 12 12 22 12 10 0 34 9 52 19
26 15 43 17 78 12 27 -4 44 -12 43 -19 -4 -14 13 -16 22 -2 10 17 28 11 21 -7
-6 -15 -5 -15 11 -2 19 16 59 19 81 5 8 -5 21 2 33 18 22 28 55 36 46 12 -8
-21 23 -29 43 -11 9 8 38 18 63 21 26 4 47 10 47 15 0 4 15 3 33 -2 40 -13 70
-16 170 -22 60 -3 77 -1 77 10 0 7 7 13 15 13 8 0 15 -9 15 -20 0 -20 13 -25
55 -22 31 2 95 24 95 33 0 14 -18 19 -23 7 -6 -16 -37 53 -37 82 0 24 17 26
48 4 13 -9 26 -13 30 -9 4 4 1 10 -5 12 -14 5 -18 45 -6 56 3 4 17 0 31 -9 31
-21 38 -12 19 25 -15 29 -14 31 4 31 10 0 19 -6 19 -14 0 -7 8 -17 18 -20 9
-4 33 -15 52 -26 48 -26 64 -26 49 1 -38 72 -23 108 19 44 25 -39 42 -45 42
-16 0 11 6 21 13 24 9 3 9 8 -2 21 -22 27 -5 30 33 7 26 -16 40 -20 53 -13 12
7 30 6 56 -3 21 -7 40 -9 43 -4 3 5 16 9 29 9 13 0 27 5 30 11 5 7 12 6 23 -4
21 -17 62 -20 80 -4 11 9 17 8 26 -5 9 -12 29 -16 86 -15 113 0 214 -9 238
-22 11 -6 34 -11 50 -11 29 0 90 -21 105 -36 4 -4 24 -9 44 -11 21 -2 44 -10
53 -17 22 -19 96 -46 126 -46 14 0 32 -7 40 -15 9 -8 24 -15 35 -15 11 0 24
-11 30 -24 7 -14 23 -27 37 -31 14 -3 41 -22 59 -41 18 -20 37 -33 42 -30 5 3
11 -1 15 -9 3 -9 12 -12 22 -8 11 4 15 2 11 -4 -4 -6 2 -13 13 -16 12 -3 20
-14 20 -26 0 -12 6 -21 15 -21 8 0 15 -4 15 -10 0 -5 6 -10 14 -10 8 0 17 -11
20 -25 4 -14 11 -25 16 -25 12 0 85 -72 122 -120 19 -26 29 -32 37 -24 8 7 9
19 2 35 -12 33 -100 128 -133 145 -16 8 -28 21 -28 29 0 8 -6 18 -12 22 -23
15 -36 48 -26 66 13 23 31 21 62 -8 14 -13 46 -38 71 -55 48 -33 60 -45 133
-129 26 -29 64 -72 85 -94 20 -22 62 -73 93 -113 30 -41 59 -74 63 -74 4 0 29
-29 55 -64 26 -36 51 -66 55 -68 6 -3 108 -154 155 -232 10 -15 23 -47 30 -70
17 -57 46 -62 46 -8 0 22 -7 59 -15 82 -22 62 -19 65 25 30 37 -29 40 -30 40
-11 0 46 45 2 59 -57 5 -20 9 -29 10 -19 1 21 21 23 21 1 0 -9 -9 -18 -20 -21
-11 -3 -21 -10 -22 -17 0 -6 -2 -15 -2 -21 -1 -5 -5 -16 -9 -22 -4 -7 -4 -21
2 -30 11 -21 2 -151 -10 -159 -5 -3 -10 -2 -10 3 -1 4 -3 19 -5 33 -6 51 -17
83 -35 101 -9 9 -19 15 -22 13 -6 -7 13 -85 31 -122 29 -62 14 -115 -57 -194
-14 -15 -22 -30 -19 -33 3 -4 30 21 59 55 54 61 54 61 59 33 8 -40 -42 -125
-90 -155 -30 -19 -76 -7 -66 17 3 8 9 22 13 32 4 10 2 14 -4 10 -20 -12 -32
18 -37 96 -6 80 -82 343 -106 367 -3 3 -20 36 -38 74 -18 38 -49 93 -68 123
-19 29 -34 56 -34 59 0 3 -11 15 -25 26 -14 11 -25 28 -25 37 0 10 -9 30 -20
44 -11 14 -20 29 -20 35 0 5 -10 20 -23 33 -41 43 -103 124 -110 142 -9 25
-31 16 -35 -14 -1 -16 10 -37 33 -63 19 -21 35 -44 35 -51 0 -6 9 -20 20 -30
11 -10 20 -23 20 -30 0 -7 9 -20 20 -30 11 -10 20 -29 20 -41 0 -13 9 -29 21
-36 19 -12 33 -36 59 -104 6 -18 26 -48 43 -67 42 -47 74 -104 82 -150 4 -21
11 -40 16 -43 5 -3 9 -15 9 -26 0 -12 7 -29 15 -38 15 -16 45 -152 45 -203 0
-16 7 -50 16 -78 13 -39 14 -52 4 -64 -10 -12 -9 -22 5 -51 11 -24 15 -47 11
-69 -4 -19 -2 -36 4 -40 5 -3 10 -15 10 -26 0 -18 2 -19 28 -5 18 9 33 11 43
5 8 -5 17 -9 20 -9 11 0 43 69 36 76 -4 5 -29 0 -55 -9 -57 -21 -62 -21 -62
-2 0 33 23 63 53 69 25 5 35 1 63 -28 39 -41 40 -43 14 -76 -11 -14 -20 -37
-20 -51 0 -36 -72 -154 -126 -207 -46 -44 -56 -72 -26 -72 16 0 105 109 119
147 3 10 21 36 40 59 18 23 33 43 33 46 0 3 17 36 39 72 21 36 46 92 55 123
10 32 24 74 31 93 7 19 23 78 35 130 28 126 30 130 42 130 14 0 4 -143 -15
-200 -8 -25 -25 -78 -37 -117 -12 -40 -25 -75 -30 -78 -5 -3 -14 -22 -20 -41
-10 -30 -10 -38 1 -45 23 -15 28 -11 54 44 l25 52 -2 -46 c-3 -83 40 -144 52
-74 5 30 20 36 31 13 21 -45 28 -82 18 -95 -8 -8 -9 -34 -5 -71 10 -82 10
-192 0 -190 -5 2 -7 20 -6 41 2 22 -1 37 -7 37 -6 0 -11 -8 -11 -17 -1 -17 -2
-16 -15 1 -14 18 -15 18 -25 -8 -5 -15 -10 -35 -10 -45 0 -9 -9 -34 -19 -54
-11 -21 -25 -69 -31 -108 -10 -55 -15 -69 -30 -69 -23 0 -29 -17 -36 -106 -4
-58 -3 -74 8 -74 10 0 12 -11 9 -42 -3 -31 -6 -38 -11 -24 -10 30 -23 1 -15
-35 4 -17 9 -28 12 -26 12 12 63 -16 63 -34 0 -11 6 -32 14 -47 25 -49 -4
-155 -37 -135 -5 3 -7 16 -4 30 3 18 -1 27 -17 33 -11 4 -24 6 -28 3 -14 -8
-8 -58 10 -88 16 -26 17 -34 5 -80 -9 -32 -12 -75 -8 -120 8 -89 13 -169 14
-222 1 -61 18 -73 78 -58 26 7 75 24 108 38 82 34 150 42 196 23 34 -14 100
-77 133 -128 28 -42 54 -195 61 -358 7 -148 6 -160 -20 -255 -14 -55 -33 -118
-41 -139 -30 -79 -92 -344 -98 -421 -12 -141 -28 -248 -48 -320 -10 -38 -26
-95 -34 -125 -22 -78 -70 -174 -103 -208 -35 -34 -129 -72 -179 -72 -21 0 -48
7 -62 15 -14 8 -34 18 -46 24 -25 11 -37 53 -41 136 -1 33 -5 87 -9 119 -5 48
-3 61 10 68 12 7 13 13 4 33 -7 17 -8 29 -1 37 6 7 13 26 17 41 4 15 11 25 16
22 6 -3 10 1 10 9 0 9 -4 16 -10 16 -6 0 -10 43 -10 108 0 95 3 112 20 132 16
18 19 31 13 54 -4 17 -6 51 -6 76 1 36 0 40 -7 20 -4 -14 -8 -42 -9 -63 -1
-21 -7 -50 -15 -65 -17 -34 -34 -160 -42 -317 -5 -84 -12 -133 -25 -164 -11
-24 -19 -50 -19 -59 0 -13 2 -13 18 1 18 16 19 15 21 -38 2 -44 -1 -55 -13
-55 -10 0 -16 -9 -16 -24 0 -13 -6 -41 -14 -62 -7 -22 -17 -82 -21 -134 -4
-52 -12 -106 -18 -120 -6 -14 -12 -50 -13 -80 -8 -231 -15 -293 -39 -354 -14
-34 -25 -66 -25 -70 0 -4 -7 -14 -15 -22 -8 -9 -15 -23 -15 -33 0 -10 -11 -27
-25 -39 -14 -12 -25 -30 -25 -41 0 -10 -7 -24 -16 -31 -8 -8 -21 -28 -29 -46
-8 -19 -23 -43 -34 -55 -11 -12 -27 -37 -36 -55 -17 -37 -40 -53 -64 -47 -11
3 -23 -10 -37 -39 -13 -28 -26 -42 -36 -40 -22 4 -32 -16 -18 -33 17 -21 3
-87 -25 -117 -16 -17 -22 -34 -19 -49 3 -19 3 -20 -4 -6 -4 10 -12 17 -17 15
-8 -3 -23 39 -41 117 l-7 30 -7 -30 c-3 -16 -3 -40 2 -53 13 -36 9 -72 -7 -78
-10 -4 -15 -20 -15 -51 0 -39 -2 -44 -15 -33 -18 15 -29 8 -45 -30 -16 -39
-36 -38 -44 1 -8 42 -8 59 2 57 16 -5 53 25 63 49 6 16 14 23 24 19 11 -4 15
2 15 19 l0 24 -26 -24 c-15 -14 -31 -25 -35 -25 -5 0 -9 -6 -9 -14 0 -7 -16
-21 -35 -30 -38 -18 -40 -27 -24 -96 11 -51 6 -85 -15 -93 -10 -4 -13 -1 -10
7 3 7 -3 16 -13 20 -10 3 -22 8 -28 11 -20 10 -56 -61 -57 -111 0 -39 -6 -56
-29 -84 -21 -25 -32 -31 -40 -23 -8 8 -8 13 0 17 12 8 16 66 5 66 -20 0 -74
-80 -74 -110 0 -16 -7 -20 -35 -20 -37 0 -77 -32 -73 -59 2 -11 -5 -16 -21
-16 -13 0 -27 -7 -30 -15 -8 -22 -64 -90 -74 -90 -4 0 -13 11 -19 25 -16 35
-28 31 -28 -9 0 -25 -10 -45 -37 -75 -20 -23 -40 -41 -45 -41 -14 0 -9 28 8
44 14 15 14 16 -5 16 -32 0 -73 -70 -69 -116 1 -21 -2 -39 -8 -41 -6 -2 -8 10
-6 32 4 35 3 36 -24 32 -31 -4 -29 0 -51 -126 l-6 -35 38 31 c21 18 44 29 55
26 12 -3 19 3 24 21 6 24 10 26 54 23 36 -1 47 1 47 13 1 22 15 41 28 38 16
-3 66 29 97 62 14 15 41 34 60 44 19 9 42 31 51 49 9 17 21 31 27 30 6 -1 28
14 50 35 60 57 84 77 120 97 17 11 32 23 32 27 0 4 14 23 31 43 29 33 32 34
44 18 12 -17 14 -16 20 8 4 15 36 53 73 85 75 67 101 84 147 99 8 2 31 30 52
62 20 32 42 62 50 66 7 4 13 18 13 30 0 12 10 33 23 47 12 14 31 43 42 65 11
22 34 56 52 75 46 50 83 125 83 168 0 20 4 43 9 50 12 20 21 -51 27 -208 3
-106 10 -153 29 -216 14 -45 25 -92 25 -104 0 -11 4 -19 9 -16 5 3 8 0 7 -7
-1 -12 41 -190 51 -217 3 -8 8 -28 10 -45 3 -16 9 -34 14 -39 5 -6 9 -20 9
-31 0 -12 13 -39 30 -61 16 -21 30 -49 30 -61 0 -13 4 -23 10 -23 5 0 9 -3 8
-7 -1 -5 10 -44 24 -88 25 -75 38 -120 45 -155 10 -51 13 -176 4 -201 -6 -18
-6 -29 0 -29 5 0 9 -18 9 -40 0 -22 -4 -40 -10 -40 -5 0 -10 12 -10 27 0 21
-3 24 -12 15 -14 -14 -12 -115 3 -120 13 -5 11 -80 -2 -84 -7 -2 -12 -23 -12
-47 0 -30 -5 -46 -18 -54 -14 -9 -17 -20 -12 -61 3 -28 12 -63 19 -78 17 -33
18 -75 3 -80 -13 -4 6 -78 22 -88 5 -3 11 -17 13 -30 2 -14 5 -27 6 -30 1 -3
3 -9 4 -15 1 -5 7 -29 14 -51 7 -23 9 -55 6 -73 -5 -24 -3 -31 10 -31 12 0 16
-10 16 -40 0 -22 -4 -40 -10 -40 -5 0 -10 -18 -10 -40 0 -22 5 -40 10 -40 6 0
10 -18 10 -39 0 -22 4 -41 10 -43 5 -1 11 -22 13 -45 2 -23 1 -40 -2 -38 -3 1
-17 -15 -31 -36 -13 -21 -28 -39 -32 -39 -4 0 -8 -4 -8 -8 0 -13 -78 -93 -123
-127 -22 -16 -60 -49 -86 -74 -74 -73 -193 -177 -247 -218 -27 -20 -51 -39
-54 -43 -3 -3 -30 -25 -60 -50 -30 -25 -57 -48 -60 -51 -9 -12 -260 -179 -269
-179 -5 0 -15 -7 -22 -16 -7 -9 -23 -20 -36 -25 -13 -5 -23 -13 -23 -19 0 -7
687 -10 2145 -10 l2145 0 0 6130 0 6130 -6140 0 -6140 0 0 -6130z m8708 4662
c2 -7 -3 -12 -12 -12 -9 0 -16 7 -16 16 0 17 22 14 28 -4z m36 -53 c-8 -14
-24 -10 -24 6 0 9 6 12 15 9 8 -4 12 -10 9 -15z m149 -159 c28 -36 54 -67 57
-70 13 -12 60 -111 80 -165 12 -33 26 -70 32 -82 6 -11 8 -26 4 -31 -6 -10 6
-55 31 -110 8 -19 12 -36 10 -39 -11 -11 -26 9 -33 42 -3 19 -12 39 -20 46 -8
6 -14 17 -14 24 0 7 -7 18 -15 25 -15 13 -11 35 6 25 5 -4 9 0 9 8 0 8 -7 18
-16 21 -8 3 -12 10 -9 16 6 10 -25 90 -45 112 -6 7 -23 32 -38 54 -80 121
-107 159 -137 192 -19 19 -32 39 -29 44 8 13 70 -42 127 -112z m14 84 c-3 -3
-12 -4 -19 -1 -8 3 -5 6 6 6 11 1 17 -2 13 -5z m52 -34 c6 0 11 -4 11 -10 0
-18 -29 -11 -40 9 -14 28 -12 39 4 19 7 -10 18 -18 25 -18z m51 -54 c0 -7 10
-17 22 -23 12 -5 17 -12 12 -16 -15 -9 -69 37 -60 52 9 14 26 5 26 -13z m198
-217 c40 -52 72 -98 72 -102 0 -4 22 -41 50 -82 45 -69 76 -142 65 -154 -3 -2
-6 -2 -7 0 -23 37 -58 110 -58 118 0 12 -15 33 -38 54 -45 40 -72 74 -72 91 0
11 -15 34 -32 51 -48 46 -78 85 -78 100 0 7 -9 19 -20 26 -10 8 -22 27 -26 43
l-7 29 39 -39 c22 -22 72 -82 112 -135z m-328 -249 c0 -5 -2 -10 -4 -10 -3 0
-8 5 -11 10 -3 6 -1 10 4 10 6 0 11 -4 11 -10z m549 -147 c16 -56 13 -62 -9
-20 -22 41 -25 57 -10 57 5 0 14 -17 19 -37z m49 -133 c34 -90 52 -157 49
-175 -3 -15 -5 -16 -9 -5 -10 29 -66 205 -72 230 -7 23 -6 24 6 5 7 -11 19
-36 26 -55z m82 -317 c0 -20 -3 -33 -6 -30 -10 10 -12 77 -2 71 4 -3 8 -21 8
-41z m-386 -18 c3 -8 1 -15 -4 -15 -6 0 -10 7 -10 15 0 8 2 15 4 15 2 0 6 -7
10 -15z m-4331 -157 c5 -34 4 -37 -16 -35 -24 2 -37 15 -37 37 0 11 3 11 12 2
19 -19 28 -14 28 15 0 35 6 27 13 -19z m4682 -140 c8 -38 10 -218 3 -218 -5 0
-8 -19 -8 -42 0 -41 -34 -196 -46 -207 -3 -3 -3 35 0 84 3 50 8 161 12 248 5
120 10 157 20 157 8 0 16 -10 19 -22z m-4721 -105 c-4 -14 -11 -20 -20 -16
-13 5 -12 8 2 24 21 23 25 21 18 -8z m4126 -13 c13 -24 5 -41 -15 -33 -16 6
-21 53 -5 53 5 0 14 -9 20 -20z m58 -46 c7 -14 9 -37 6 -51 -6 -24 -8 -25 -20
-9 -8 11 -14 13 -19 6 -10 -16 -25 -1 -25 26 0 14 4 22 10 19 6 -3 10 3 10 14
0 29 24 26 38 -5z m119 -96 c-3 -8 -6 -5 -6 6 -1 11 2 17 5 13 3 -3 4 -12 1
-19z m13 -97 c0 -55 -15 -59 -17 -5 -1 24 2 44 7 44 6 0 10 -18 10 -39z
m-4557 -104 c-4 -6 -10 -1 -15 12 -4 13 -5 28 -1 34 4 6 10 1 15 -12 4 -13 5
-28 1 -34z m177 27 c0 -2 -7 -4 -15 -4 -8 0 -15 4 -15 10 0 5 7 7 15 4 8 -4
15 -8 15 -10z m95 -114 c-27 -12 -35 -12 -35 0 0 6 12 10 28 9 24 0 25 -1 7
-9z m-145 -40 c0 -5 -7 -10 -15 -10 -8 0 -15 5 -15 10 0 6 7 10 15 10 8 0 15
-4 15 -10z m190 -7 c0 -5 -5 -15 -10 -23 -7 -11 -12 -12 -21 -3 -6 6 -8 16 -5
22 8 12 36 15 36 4z m35 -36 c0 -26 -20 -25 -23 2 -3 16 1 22 10 19 7 -3 13
-12 13 -21z m4085 -102 c-18 -36 -19 -37 -14 -10 8 41 28 82 32 64 1 -8 -7
-32 -18 -54z m-4109 22 c-13 -13 -26 -3 -16 12 3 6 11 8 17 5 6 -4 6 -10 -1
-17z m-341 8 c0 -3 -9 -24 -20 -45 -22 -42 -40 -50 -60 -25 -10 12 -8 16 13
24 14 6 28 19 32 30 5 18 35 31 35 16z m4870 -30 c0 -27 -52 -85 -58 -66 -5
14 -3 21 6 23 11 3 37 31 38 42 3 23 4 26 9 26 3 0 5 -11 5 -25z m-4909 -85
c5 0 9 -9 9 -20 0 -24 -4 -25 -35 -4 -26 17 -24 40 2 30 8 -3 19 -6 24 -6z
m4239 -14 c0 -3 -4 -8 -10 -11 -5 -3 -10 -1 -10 4 0 6 5 11 10 11 6 0 10 -2
10 -4z m-4225 -46 c3 -5 1 -10 -4 -10 -6 0 -11 5 -11 10 0 6 2 10 4 10 3 0 8
-4 11 -10z m4576 -53 c-8 -8 -11 -5 -11 9 0 27 14 41 18 19 2 -9 -1 -22 -7
-28z m176 -69 c-3 -7 -5 -2 -5 12 0 14 2 19 5 13 2 -7 2 -19 0 -25z m-142 -8
c3 -5 1 -10 -4 -10 -6 0 -11 5 -11 10 0 6 2 10 4 10 3 0 8 -4 11 -10z m-4605
-270 c0 -11 -7 -20 -15 -20 -8 0 -15 9 -15 20 0 11 7 20 15 20 8 0 15 -9 15
-20z m-53 -56 c-3 -3 -12 -4 -19 -1 -8 3 -5 6 6 6 11 1 17 -2 13 -5z m-37 -29
c0 -8 -4 -15 -10 -15 -5 0 -10 7 -10 15 0 8 5 15 10 15 6 0 10 -7 10 -15z
m1325 -204 c-3 -6 -14 -11 -23 -11 -15 1 -15 2 2 15 21 16 32 13 21 -4z m-417
-414 c40 -48 15 -124 -57 -173 -28 -19 -46 -39 -46 -50 0 -10 -4 -25 -8 -31
-10 -15 -73 -17 -82 -3 -9 14 -27 1 -21 -15 5 -13 -14 -25 -37 -25 -7 0 -3 7
7 15 12 9 14 15 7 15 -18 0 -8 23 11 26 32 4 63 17 80 31 17 15 18 66 3 133
-4 18 -1 32 7 39 48 41 67 50 94 51 17 0 36 -6 42 -13z m-321 -158 c3 -11 10
-19 15 -19 5 0 6 -18 3 -43 -5 -33 -3 -48 9 -60 20 -19 20 -27 3 -27 -27 0
-78 33 -87 55 -5 13 -14 26 -20 30 -10 6 -6 67 5 86 9 14 68 -4 72 -22z m73
11 c0 -10 5 -31 12 -45 13 -29 5 -43 -15 -26 -15 12 -20 91 -6 91 5 0 9 -9 9
-20z m-560 -160 c0 -5 -2 -10 -4 -10 -3 0 -8 5 -11 10 -3 6 -1 10 4 10 6 0 11
-4 11 -10z m4498 -113 c5 -37 -15 -34 -20 3 -3 19 -1 29 6 27 6 -2 12 -16 14
-30z m-4838 -1163 c0 -8 -4 -14 -9 -14 -11 0 -22 26 -14 34 9 9 23 -3 23 -20z
m1873 6 c4 -15 14 -20 38 -20 l34 0 -38 -25 c-38 -26 -67 -78 -69 -124 -1 -40
-18 -89 -31 -94 -24 -8 -86 6 -106 25 -16 14 -20 28 -17 51 8 61 19 97 28 97
6 0 8 14 6 30 -4 26 -1 30 18 30 13 0 26 5 29 11 4 6 13 8 20 5 8 -3 19 1 25
9 6 8 18 11 26 8 8 -3 14 0 14 6 0 19 17 12 23 -9z m-436 -392 c-3 -8 -6 -5
-6 6 -1 11 2 17 5 13 3 -3 4 -12 1 -19z m97 -77 c20 -22 10 -33 -22 -24 -21 5
-29 23 -15 36 10 11 19 8 37 -12z m-2139 -191 c-3 -5 -12 -10 -18 -10 -7 0 -6
4 3 10 19 12 23 12 15 0z m-48 -6 c-3 -3 -12 -4 -19 -1 -8 3 -5 6 6 6 11 1 17
-2 13 -5z m1923 -24 c0 -5 -7 -10 -15 -10 -8 0 -15 5 -15 10 0 6 7 10 15 10 8
0 15 -4 15 -10z m580 -51 c0 -17 -4 -28 -10 -24 -5 3 -10 17 -10 31 0 13 5 24
10 24 6 0 10 -14 10 -31z m-575 -29 c-3 -5 -13 -6 -21 -3 -12 4 -13 8 -3 14
15 9 32 2 24 -11z m515 -6 c0 -8 -4 -12 -10 -9 -5 3 -10 10 -10 16 0 5 5 9 10
9 6 0 10 -7 10 -16z m-1598 -36 c-15 -15 -24 -6 -16 16 5 12 10 14 17 7 8 -8
8 -14 -1 -23z m1448 3 c0 -12 -20 -25 -27 -18 -7 7 6 27 18 27 5 0 9 -4 9 -9z
m-424 -17 c-9 -8 -16 -20 -16 -25 0 -5 -4 -9 -10 -9 -14 0 -12 37 3 43 28 12
39 7 23 -9z m264 6 c0 -12 -28 -25 -36 -17 -9 9 6 27 22 27 8 0 14 -5 14 -10z
m100 -10 c0 -5 -4 -10 -10 -10 -5 0 -10 5 -10 10 0 6 5 10 10 10 6 0 10 -4 10
-10z m-494 -147 c-11 -11 -19 6 -11 24 8 17 8 17 12 0 3 -10 2 -21 -1 -24z
m3584 -59 c0 -8 -4 -14 -10 -14 -5 0 -10 9 -10 21 0 11 5 17 10 14 6 -3 10
-13 10 -21z m-4255 -105 c12 -18 -3 -22 -20 -5 -14 14 -14 16 -1 16 8 0 18 -5
21 -11z m543 -37 c-7 -27 -14 -40 -20 -34 -6 6 -3 24 6 47 21 49 28 42 14 -13z
m-8 -72 c0 -5 -4 -10 -10 -10 -5 0 -10 5 -10 10 0 6 5 10 10 10 6 0 10 -4 10
-10z m20 -177 c-1 -5 -7 -19 -15 -33 l-14 -25 -1 26 c0 14 3 29 7 32 9 9 23 9
23 0z m193 -279 c-4 -10 -9 -12 -15 -6 -12 12 -1 35 12 27 5 -3 6 -13 3 -21z
m-133 -78 c0 -2 -7 -9 -15 -16 -12 -10 -15 -10 -15 4 0 9 7 16 15 16 8 0 15
-2 15 -4z m-45 -66 c-3 -5 -10 -10 -16 -10 -5 0 -9 5 -9 10 0 6 7 10 16 10 8
0 12 -4 9 -10z m75 -30 c0 -5 -7 -10 -16 -10 -8 0 -12 5 -9 10 3 6 10 10 16
10 5 0 9 -4 9 -10z m14 -46 c9 -8 15 -23 15 -32 -1 -15 -2 -15 -6 1 -3 13 -10
16 -26 11 -31 -9 -32 -12 -13 -33 16 -18 16 -20 -9 -45 -30 -30 -38 -32 -33
-9 3 19 -25 53 -44 53 -15 0 32 50 57 60 30 13 42 12 59 -6z m88 -115 c-2 -17
-8 -27 -13 -22 -9 9 -1 53 10 53 4 0 6 -14 3 -31z m-92 -9 c0 -5 -4 -10 -10
-10 -5 0 -10 5 -10 10 0 6 5 10 10 10 6 0 10 -4 10 -10z m3310 -34 c0 -8 -4
-17 -8 -20 -4 -2 -8 4 -8 15 0 10 4 19 8 19 4 0 8 -6 8 -14z m-3300 -55 c0
-11 -12 -23 -31 -31 -25 -11 -29 -17 -25 -37 4 -12 2 -23 -3 -23 -5 0 -11 8
-14 18 -3 13 -6 11 -15 -10 -14 -34 -32 -36 -32 -5 0 17 11 30 41 46 24 14 38
28 35 36 -3 8 0 16 7 19 25 10 37 5 37 -13z m-216 -76 c-10 -16 -20 -23 -22
-16 -4 12 28 55 35 47 3 -2 -3 -17 -13 -31z m3453 13 c-3 -8 -6 -5 -6 6 -1 11
2 17 5 13 3 -3 4 -12 1 -19z m-86 -76 c-23 -67 -31 -75 -31 -29 0 23 8 46 22
62 12 14 23 24 24 22 1 -1 -5 -26 -15 -55z m-3121 22 c0 -2 -7 -4 -15 -4 -8 0
-15 4 -15 10 0 5 7 7 15 4 8 -4 15 -8 15 -10z m29 -63 c6 -10 7 -21 4 -25 -3
-3 -2 -6 4 -6 6 0 16 7 23 15 7 8 17 12 22 9 12 -8 -46 -44 -72 -44 -23 0 -36
36 -20 55 17 20 27 19 39 -4z m61 -40 c0 -10 -39 -41 -52 -41 -9 0 34 47 45
49 4 1 7 -3 7 -8z m40 -10 c0 -4 -9 -20 -20 -34 -11 -14 -20 -32 -20 -40 0
-16 -50 -57 -69 -57 -13 0 3 31 32 64 9 11 17 24 17 30 0 15 31 46 47 46 7 0
13 -4 13 -9z m2720 -245 c0 -8 -4 -18 -10 -21 -5 -3 -10 3 -10 14 0 12 5 21
10 21 6 0 10 -6 10 -14z m-116 -43 c-7 -32 -21 -50 -30 -41 -5 6 25 68 33 68
2 0 0 -12 -3 -27z m-2319 -87 c-4 -36 -11 -66 -16 -66 -10 0 -12 133 -2 144
17 16 24 -17 18 -78z m142 -58 c-3 -8 -6 -5 -6 6 -1 11 2 17 5 13 3 -3 4 -12
1 -19z m13 -88 c0 -5 -5 -10 -11 -10 -5 0 -7 5 -4 10 3 6 8 10 11 10 2 0 4 -4
4 -10z m1888 -97 c-2 -9 -8 -18 -15 -20 -7 -3 -9 3 -6 16 6 25 26 28 21 4z
m-58 -24 c-7 -11 -14 -18 -17 -15 -3 3 0 12 7 21 18 21 23 19 10 -6z m-61 -73
c-11 -23 -29 -36 -29 -20 0 8 34 53 38 49 1 -1 -3 -14 -9 -29z m-1687 -41 c4
-20 3 -23 -8 -14 -16 13 -19 39 -5 39 5 0 11 -11 13 -25z m1646 -7 c-6 -18
-28 -21 -28 -4 0 9 7 16 16 16 9 0 14 -5 12 -12z m-827 -45 c12 -79 4 -115
-15 -68 -13 31 -10 75 5 75 5 0 10 -3 10 -7z m259 -25 c0 -36 -13 -62 -27 -57
-12 5 5 89 18 89 5 0 9 -15 9 -32z m460 28 c0 -3 -4 -8 -10 -11 -5 -3 -10 -1
-10 4 0 6 5 11 10 11 6 0 10 -2 10 -4z m-967 -66 c-3 -11 -7 -20 -9 -20 -2 0
-4 9 -4 20 0 11 4 20 9 20 5 0 7 -9 4 -20z m393 -28 c-11 -10 -15 4 -8 28 l7
25 3 -23 c2 -13 1 -26 -2 -30z m-295 -35 c-13 -13 -15 11 -4 40 7 16 8 15 11
-6 2 -13 -1 -28 -7 -34z m48 11 c1 -5 -3 -8 -9 -8 -5 0 -10 12 -9 28 0 24 1
25 9 7 5 -11 9 -23 9 -27z m-529 -8 c0 -5 -5 -10 -11 -10 -5 0 -7 5 -4 10 3 6
8 10 11 10 2 0 4 -4 4 -10z m753 -22 c-19 -34 -43 -64 -43 -53 0 15 42 85 51
85 5 0 2 -15 -8 -32z m40 -17 c-6 -22 -43 -60 -43 -44 0 10 38 63 45 63 2 0 1
-9 -2 -19z m-99 -105 c-7 -19 -52 -48 -63 -41 -15 9 -5 38 13 41 10 1 20 5 24
8 11 12 31 6 26 -8z m2176 -7 c0 -5 -7 -9 -15 -9 -9 0 -12 6 -9 15 6 15 24 11
24 -6z m-3462 -31 c-21 -31 -35 -33 -40 -3 -5 22 -2 25 25 25 28 0 29 -1 15
-22z m3462 -33 c0 -16 -6 -25 -15 -25 -18 0 -18 5 -5 31 14 26 20 24 20 -6z
m-4543 -191 c-3 -3 -12 -4 -19 -1 -8 3 -5 6 6 6 11 1 17 -2 13 -5z"/>
<path d="M6345 9900 c3 -5 8 -10 11 -10 2 0 4 5 4 10 0 6 -5 10 -11 10 -5 0
-7 -4 -4 -10z"/>
<path d="M4740 8934 c0 -8 5 -12 10 -9 6 4 8 11 5 16 -9 14 -15 11 -15 -7z"/>
<path d="M4720 8900 c0 -5 4 -10 9 -10 6 0 13 5 16 10 3 6 -1 10 -9 10 -9 0
-16 -4 -16 -10z"/>
<path d="M8895 8859 c-4 -6 0 -18 9 -27 15 -15 16 -15 16 5 0 25 -15 38 -25
22z"/>
<path d="M5000 8571 c0 -6 5 -13 10 -16 6 -3 10 1 10 9 0 9 -4 16 -10 16 -5 0
-10 -4 -10 -9z"/>
<path d="M4928 8453 c-30 -8 -29 -30 3 -29 21 1 29 6 29 19 0 17 -2 18 -32 10z"/>
<path d="M4560 8110 c0 -10 -4 -22 -10 -25 -15 -10 -12 -35 5 -35 10 0 15 10
15 29 0 16 5 31 12 33 7 3 6 7 -5 11 -12 5 -17 1 -17 -13z"/>
<path d="M8750 8070 c-12 -23 2 -27 19 -6 8 9 8 16 2 20 -6 4 -15 -3 -21 -14z"/>
<path d="M7444 8070 c-5 -4 -25 -12 -44 -17 -27 -7 -37 -16 -44 -41 -7 -27 -6
-35 9 -46 21 -15 65 -14 108 3 41 16 34 -6 -10 -32 l-38 -22 43 -3 c29 -2 42
-8 42 -18 0 -10 6 -13 18 -10 52 16 117 26 134 20 10 -3 24 -1 31 4 7 5 33 15
60 22 26 7 50 16 52 20 3 4 -14 20 -37 35 -34 23 -46 26 -72 18 -33 -9 -136 4
-136 19 0 4 8 8 18 8 17 1 52 22 52 33 0 3 -12 6 -27 6 -16 0 -55 2 -89 5 -33
3 -65 1 -70 -4z"/>
<path d="M7870 7990 c0 -5 7 -10 15 -10 8 0 15 5 15 10 0 6 -7 10 -15 10 -8 0
-15 -4 -15 -10z"/>
<path d="M9010 7891 c0 -12 5 -21 10 -21 6 0 10 6 10 14 0 8 -4 18 -10 21 -5
3 -10 -3 -10 -14z"/>
<path d="M9010 7760 c0 -32 14 -40 24 -15 6 18 -2 45 -15 45 -5 0 -9 -13 -9
-30z"/>
<path d="M8991 7644 c0 -11 3 -14 6 -6 3 7 2 16 -1 19 -3 4 -6 -2 -5 -13z"/>
<path d="M7556 7481 c-22 -3 -41 -12 -44 -19 -3 -11 0 -12 16 -3 11 6 32 11
46 11 14 0 26 5 26 10 0 6 -1 9 -2 9 -2 -1 -21 -5 -42 -8z"/>
<path d="M7438 7430 c-49 -26 -78 -51 -78 -67 0 -15 -16 -17 -25 -3 -9 15 -35
12 -35 -4 0 -8 12 -17 26 -20 19 -5 33 0 55 19 28 23 42 29 61 26 3 0 11 13
17 29 7 21 15 28 25 24 9 -3 16 -1 16 5 0 16 -21 13 -62 -9z"/>
<path d="M7560 7351 c-8 -4 -40 -19 -70 -33 -30 -14 -68 -32 -83 -39 -16 -7
-42 -28 -58 -46 -15 -18 -32 -33 -37 -33 -14 0 -72 -65 -72 -82 0 -27 31 -43
85 -43 l51 -1 -14 28 c-12 25 -11 32 14 78 23 43 33 51 78 66 28 9 55 20 61
25 5 5 20 9 33 9 19 0 23 -4 17 -17 -4 -10 -12 -38 -17 -63 -5 -25 -13 -59
-17 -75 -5 -19 -4 -35 3 -41 11 -10 116 -41 161 -48 11 -1 30 -8 42 -14 38
-21 63 -15 74 18 6 17 18 30 26 30 8 0 11 5 8 11 -4 6 -9 48 -11 94 -3 77 -2
86 18 105 26 24 83 27 92 5 3 -8 14 -15 24 -15 36 0 72 -38 72 -76 0 -43 -15
-74 -36 -74 -9 0 -14 -7 -12 -17 2 -13 -4 -18 -22 -19 -45 -1 -50 -4 -50 -28
0 -19 -7 -25 -42 -33 -42 -10 -41 -11 34 -12 42 0 88 3 101 8 29 11 57 74 64
149 4 37 10 52 21 52 38 0 125 -77 153 -136 8 -16 23 -30 34 -33 11 -2 31 -12
45 -23 15 -12 26 -15 28 -8 8 22 -21 70 -57 97 -20 15 -57 49 -83 75 -31 31
-56 48 -72 48 -14 0 -42 10 -63 23 -20 12 -58 27 -83 32 -34 8 -46 15 -48 31
-3 19 -6 20 -57 12 -41 -8 -66 -6 -108 6 -48 14 -58 14 -83 2 -16 -9 -34 -12
-43 -7 -26 13 -85 20 -101 12z m88 -173 c26 -18 51 -40 56 -48 5 -8 19 -24 32
-37 19 -19 20 -24 7 -34 -11 -10 -19 -10 -34 -1 -11 7 -30 10 -44 6 -34 -8
-91 47 -76 73 6 11 6 24 0 35 -9 17 -5 38 7 38 3 0 27 -15 52 -32z"/>
<path d="M4870 6794 c0 -8 5 -12 10 -9 6 3 10 10 10 16 0 5 -4 9 -10 9 -5 0
-10 -7 -10 -16z"/>
<path d="M4963 6663 c-28 -5 -30 -23 -4 -23 28 0 52 11 45 21 -3 5 -8 8 -12 8
-4 -1 -17 -4 -29 -6z"/>
<path d="M9367 6473 c-12 -11 -8 -23 8 -23 8 0 15 7 15 15 0 16 -12 20 -23 8z"/>
<path d="M9018 6454 c-4 -5 -1 -35 7 -65 7 -29 13 -43 13 -29 1 41 -13 106
-20 94z"/>
<path d="M9392 6418 c6 -18 28 -21 28 -4 0 9 -7 16 -16 16 -9 0 -14 -5 -12
-12z"/>
<path d="M9440 6316 c0 -7 7 -19 15 -26 16 -13 20 -3 9 24 -8 20 -24 21 -24 2z"/>
<path d="M9455 6260 c-7 -12 2 -30 16 -30 5 0 9 9 9 20 0 21 -15 27 -25 10z"/>
<path d="M9040 5850 c0 -18 4 -29 10 -25 6 3 10 15 10 25 0 10 -4 22 -10 25
-6 4 -10 -7 -10 -25z"/>
<path d="M9012 5755 c-14 -31 -16 -93 -3 -79 10 9 27 104 19 104 -3 0 -10 -11
-16 -25z"/>
<path d="M8976 5624 c-10 -27 -7 -56 7 -52 14 5 23 68 9 68 -6 0 -13 -7 -16
-16z"/>
<path d="M4202 5591 c4 -13 18 -16 19 -4 0 4 -5 9 -11 12 -7 2 -11 -2 -8 -8z"/>
<path d="M6936 5589 c-30 -8 -76 -46 -76 -62 0 -22 76 -73 134 -89 71 -19 86
-13 86 39 0 83 -66 135 -144 112z"/>
<path d="M5520 5236 c0 -9 5 -16 10 -16 6 0 10 4 10 9 0 6 -4 13 -10 16 -5 3
-10 -1 -10 -9z"/>
<path d="M5357 5043 c-4 -3 -7 -11 -7 -17 0 -6 5 -5 12 2 6 6 9 14 7 17 -3 3
-9 2 -12 -2z"/>
<path d="M6600 4886 c0 -14 -4 -28 -10 -31 -5 -3 -10 -25 -10 -49 l0 -42 73
-17 c74 -18 127 -22 127 -10 0 19 -36 113 -44 113 -5 0 -14 -8 -21 -17 -11
-15 -15 -11 -33 30 -18 41 -25 47 -51 47 -26 0 -31 -4 -31 -24z"/>
<path d="M5644 4665 c-3 -8 4 -26 15 -41 l21 -27 0 27 c0 14 -5 26 -11 26 -6
0 -9 7 -5 15 3 8 1 15 -5 15 -5 0 -12 -7 -15 -15z"/>
<path d="M5411 4594 c0 -11 3 -14 6 -6 3 7 2 16 -1 19 -3 4 -6 -2 -5 -13z"/>
<path d="M5620 4600 c0 -5 5 -10 10 -10 6 0 10 5 10 10 0 6 -4 10 -10 10 -5 0
-10 -4 -10 -10z"/>
<path d="M5310 4561 c-11 -22 -24 -42 -30 -46 -5 -3 -10 -15 -10 -26 0 -11 -4
-17 -10 -14 -5 3 -10 -2 -10 -13 0 -16 5 -18 28 -14 38 7 52 20 52 49 0 14 9
36 20 50 25 33 26 53 0 53 -13 0 -27 -14 -40 -39z"/>
<path d="M4551 4574 c0 -11 3 -14 6 -6 3 7 2 16 -1 19 -3 4 -6 -2 -5 -13z"/>
<path d="M5366 4541 c-4 -7 -5 -15 -2 -18 9 -9 19 4 14 18 -4 11 -6 11 -12 0z"/>
<path d="M5664 4475 c-4 -8 -12 -15 -18 -15 -7 0 -22 -9 -34 -20 -11 -11 -27
-17 -35 -14 -22 8 -31 -15 -15 -34 30 -35 29 -42 -22 -93 -59 -62 -67 -94 -19
-84 34 8 79 -10 79 -31 0 -7 9 -15 20 -19 19 -6 19 -7 -3 -37 -12 -18 -30 -40
-39 -50 -19 -19 -24 -38 -10 -38 8 0 32 -49 32 -67 0 -7 -8 -13 -17 -14 -10 0
-13 -3 -7 -5 7 -3 9 -15 6 -26 -4 -17 -2 -20 12 -15 10 4 20 7 22 7 3 0 2 5
-1 11 -4 6 2 13 13 15 12 4 25 21 33 46 7 22 15 36 17 29 2 -6 9 -11 16 -11 7
0 17 -5 24 -12 14 -14 46 -19 90 -12 29 4 32 8 32 39 l0 34 -62 -1 c-35 0 -70
0 -78 1 -21 1 -42 38 -35 60 5 16 16 18 112 15 59 -2 114 -2 123 1 9 3 17 18
18 36 1 17 7 39 12 49 6 10 10 27 10 38 0 30 34 53 87 60 52 7 59 7 293 3 85
-2 164 -3 174 -2 36 2 6 14 -41 17 -119 7 -204 17 -209 25 -3 5 -23 9 -46 9
-47 0 -138 29 -154 49 -9 11 -15 11 -35 1 -13 -7 -28 -19 -32 -27 -7 -11 -22
-12 -66 -7 -42 4 -66 2 -87 -9 -42 -21 -106 -30 -137 -18 -33 13 -34 27 -5 58
17 18 19 26 10 32 -7 4 -10 15 -6 24 3 10 1 17 -5 17 -7 0 -14 -7 -17 -15z"/>
<path d="M5540 4360 c0 -5 5 -10 10 -10 6 0 10 5 10 10 0 6 -4 10 -10 10 -5 0
-10 -4 -10 -10z"/>
<path d="M6670 4350 l-25 -7 27 -8 c29 -7 52 1 43 16 -7 10 -10 10 -45 -1z"/>
<path d="M7450 4251 c0 -13 27 -21 75 -21 45 0 67 13 39 24 -24 9 -114 7 -114
-3z"/>
<path d="M5490 4185 c0 -9 5 -15 11 -13 6 2 11 8 11 13 0 5 -5 11 -11 13 -6 2
-11 -4 -11 -13z"/>
<path d="M5506 4109 c-21 -20 -9 -25 27 -10 16 6 16 9 5 18 -10 8 -18 6 -32
-8z"/>
<path d="M5202 4010 c-16 -26 -15 -29 8 -23 11 3 20 14 20 24 0 25 -12 24 -28
-1z"/>
<path d="M5827 3784 c-4 -4 -7 -17 -7 -29 0 -13 -7 -28 -15 -35 -8 -7 -15 -18
-14 -24 0 -7 2 -6 6 2 8 21 22 13 25 -15 5 -44 23 -32 24 15 2 50 -8 96 -19
86z"/>
<path d="M6377 3774 c-4 -4 -7 -36 -7 -70 0 -53 -3 -64 -19 -69 -11 -3 -23
-23 -31 -51 -18 -63 -7 -65 18 -2 16 42 22 49 27 35 5 -12 0 -33 -14 -57 -16
-28 -22 -55 -21 -97 1 -97 0 -116 -11 -129 -7 -9 -5 -11 8 -10 22 1 42 32 43
64 0 15 7 26 20 29 12 3 27 18 35 34 17 32 19 53 5 44 -6 -3 -10 5 -10 19 0
14 5 28 10 31 6 3 10 24 10 46 0 22 4 49 10 59 11 21 3 53 -11 44 -5 -3 -9
-34 -9 -69 0 -100 -17 -85 -25 22 -7 101 -16 139 -28 127z"/>
<path d="M5996 3713 c-8 -37 -5 -113 5 -119 16 -10 26 33 22 89 -6 61 -18 74
-27 30z"/>
<path d="M6580 3702 c0 -11 4 -24 10 -27 15 -9 4 -94 -15 -115 -20 -22 -14
-50 10 -50 22 0 35 42 35 114 0 50 -4 67 -20 81 -19 18 -20 17 -20 -3z"/>
<path d="M5410 3700 c0 -5 5 -10 10 -10 6 0 10 5 10 10 0 6 -4 10 -10 10 -5 0
-10 -4 -10 -10z"/>
<path d="M6280 3674 c0 -8 5 -12 10 -9 6 3 10 10 10 16 0 5 -4 9 -10 9 -5 0
-10 -7 -10 -16z"/>
<path d="M8526 3675 c-3 -9 -6 -24 -5 -33 0 -9 5 -4 10 12 9 32 6 48 -5 21z"/>
<path d="M5456 3653 c0 -18 7 -29 18 -31 16 -4 16 -2 1 27 -19 38 -21 38 -19
4z"/>
<path d="M6228 3649 c-23 -13 -23 -60 -2 -101 14 -27 17 -29 31 -15 8 8 17 37
19 63 2 27 1 41 -2 31 -8 -25 -30 -15 -27 12 3 24 4 24 -19 10z m13 -86 c-10
-17 -10 -16 -11 3 0 23 13 41 18 25 2 -6 -1 -18 -7 -28z"/>
<path d="M6130 3617 c0 -18 7 -43 16 -56 13 -18 14 -27 5 -45 -7 -12 -14 -38
-16 -57 -3 -40 -14 -69 -25 -69 -12 0 -18 -83 -7 -98 7 -9 4 -21 -11 -42 -12
-16 -22 -39 -22 -50 0 -18 -4 -20 -22 -14 -13 4 -34 8 -48 8 -22 1 -25 -4 -28
-36 -4 -46 7 -48 30 -8 18 32 38 40 38 15 0 -22 31 -15 53 13 10 12 25 22 33
22 8 0 14 9 14 21 0 13 4 18 12 13 7 -5 8 -3 4 5 -10 16 2 81 15 81 6 0 9 -12
8 -28 -2 -15 1 -33 5 -41 5 -7 4 -16 -1 -20 -6 -3 -14 -17 -18 -31 -8 -25 -8
-25 14 -6 12 11 21 31 21 48 0 16 9 36 19 45 15 12 18 24 14 46 -3 15 0 53 7
83 7 30 10 57 6 61 -13 13 -40 -41 -37 -75 2 -25 -1 -33 -11 -30 -10 4 -12 23
-10 75 3 55 -1 81 -17 118 -12 26 -21 56 -21 66 0 11 -4 19 -10 19 -5 0 -10
-15 -10 -33z"/>
<path d="M6506 3618 c-6 -28 -2 -48 8 -37 10 11 17 69 8 69 -5 0 -12 -14 -16
-32z"/>
<path d="M5640 3541 c-7 -13 -7 -22 0 -26 15 -9 29 3 27 25 -2 25 -13 26 -27
1z"/>
<path d="M6090 3495 c0 -14 5 -25 10 -25 6 0 10 11 10 25 0 14 -4 25 -10 25
-5 0 -10 -11 -10 -25z"/>
<path d="M5570 3485 c0 -8 -5 -15 -11 -15 -5 0 -7 -5 -4 -10 5 -8 11 -7 21 1
16 13 19 39 4 39 -5 0 -10 -7 -10 -15z"/>
<path d="M5605 3469 c5 -13 3 -19 -3 -15 -5 3 -13 -1 -16 -10 -17 -43 2 -46
27 -3 21 38 22 49 1 49 -11 0 -14 -6 -9 -21z"/>
<path d="M6597 3483 c-3 -5 3 -20 14 -33 18 -24 19 -24 19 -4 0 23 -25 50 -33
37z"/>
<path d="M5365 3429 c-4 -6 -4 -13 -1 -16 8 -8 36 5 36 17 0 13 -27 13 -35 -1z"/>
<path d="M6290 3415 c0 -14 5 -25 10 -25 6 0 10 11 10 25 0 14 -4 25 -10 25
-5 0 -10 -11 -10 -25z"/>
<path d="M8307 3390 c-14 -60 -17 -99 -7 -105 19 -12 32 39 22 86 -8 38 -10
41 -15 19z"/>
<path d="M5539 3381 c-13 -11 -21 -22 -18 -26 4 -3 20 5 35 19 34 29 18 35
-17 7z"/>
<path d="M6301 3364 c0 -11 3 -14 6 -6 3 7 2 16 -1 19 -3 4 -6 -2 -5 -13z"/>
<path d="M6385 3349 c-12 -19 5 -23 22 -6 16 16 16 17 1 17 -9 0 -20 -5 -23
-11z"/>
<path d="M5512 3310 c0 -14 2 -19 5 -12 2 6 2 18 0 25 -3 6 -5 1 -5 -13z"/>
<path d="M5935 3291 c-3 -5 -1 -12 5 -16 5 -3 10 1 10 9 0 18 -6 21 -15 7z"/>
<path d="M6033 3278 c-19 -31 -31 -58 -23 -53 17 10 51 65 41 65 -5 0 -13 -6
-18 -12z"/>
<path d="M7940 3204 c0 -8 5 -12 10 -9 6 4 8 11 5 16 -9 14 -15 11 -15 -7z"/>
<path d="M7921 3164 c0 -11 3 -14 6 -6 3 7 2 16 -1 19 -3 4 -6 -2 -5 -13z"/>
<path d="M6122 3140 c-16 -43 -15 -65 2 -79 11 -9 15 -4 20 28 3 22 2 50 -2
62 -8 22 -9 21 -20 -11z"/>
<path d="M7997 3136 c-5 -14 10 -36 25 -36 4 0 8 11 8 25 0 27 -24 35 -33 11z"/>
<path d="M5957 3021 c-21 -60 -22 -81 -2 -81 13 0 21 26 16 53 -1 5 3 24 8 43
14 52 -2 41 -22 -15z"/>
<path d="M6078 3015 c-13 -23 -17 -64 -7 -70 7 -5 4 -14 -7 -26 -22 -25 -14
-33 13 -14 23 16 41 74 26 84 -6 3 -12 13 -15 21 -2 7 -7 10 -10 5z"/>
<path d="M7882 3004 c1 -9 9 -19 16 -22 9 -3 13 2 10 14 -1 9 -9 19 -16 22 -9
3 -13 -2 -10 -14z"/>
<path d="M7940 2935 c0 -8 5 -15 10 -15 6 0 10 7 10 15 0 8 -4 15 -10 15 -5 0
-10 -7 -10 -15z"/>
<path d="M6156 2894 c-4 -9 -4 -19 -1 -22 2 -3 7 3 11 12 4 9 4 19 1 22 -2 3
-7 -3 -11 -12z"/>
<path d="M6050 2830 c0 -40 13 -53 24 -24 10 27 7 52 -9 58 -12 4 -15 -3 -15
-34z"/>
<path d="M7778 2854 c-5 -4 -8 -19 -8 -33 0 -18 3 -22 11 -14 6 6 9 21 7 33
-1 12 -6 18 -10 14z"/>
<path d="M6106 2815 c-9 -24 -7 -65 3 -65 11 0 21 63 11 73 -4 5 -10 1 -14 -8z"/>
<path d="M6201 2753 c-1 -18 4 -33 9 -33 12 0 12 17 0 45 -7 17 -9 15 -9 -12z"/>
<path d="M6722 2734 c2 -20 9 -39 16 -42 10 -3 12 6 10 34 -2 20 -9 39 -16 42
-10 3 -12 -6 -10 -34z"/>
<path d="M6246 2684 c-9 -71 -7 -134 5 -134 6 0 10 24 9 63 -1 34 1 74 5 90 4
16 3 27 -2 27 -6 0 -13 -21 -17 -46z"/>
<path d="M7500 2704 c0 -8 5 -12 10 -9 6 4 8 11 5 16 -9 14 -15 11 -15 -7z"/>
<path d="M6841 2669 c-13 -38 -14 -79 -2 -79 5 0 11 13 14 29 3 16 9 40 13 55
9 37 -12 33 -25 -5z"/>
<path d="M7587 2693 c-13 -12 -7 -23 13 -23 11 0 20 7 20 15 0 15 -21 21 -33
8z"/>
<path d="M7371 2661 c-14 -11 -21 -23 -17 -30 10 -15 32 1 39 29 3 11 4 20 4
20 -1 0 -13 -9 -26 -19z"/>
<path d="M6211 2624 c0 -11 3 -14 6 -6 3 7 2 16 -1 19 -3 4 -6 -2 -5 -13z"/>
<path d="M6386 2611 c-14 -15 -14 -20 -2 -30 11 -9 15 -6 20 15 9 34 3 39 -18
15z"/>
<path d="M6534 2619 c-3 -6 -1 -16 5 -22 8 -8 11 -5 11 11 0 24 -5 28 -16 11z"/>
<path d="M7222 2552 c-30 -27 -44 -51 -23 -37 6 3 14 -2 19 -11 9 -15 13 -14
38 9 16 15 36 27 46 27 9 0 20 5 23 10 3 6 -3 10 -14 10 -11 0 -23 5 -26 10
-10 17 -30 11 -63 -18z"/>
<path d="M7178 2473 c7 -3 16 -2 19 1 4 3 -2 6 -13 5 -11 0 -14 -3 -6 -6z"/>
<path d="M7773 143 c-7 -2 -13 -11 -13 -18 0 -7 -4 -15 -9 -17 -4 -1 -11 -13
-15 -25 -6 -18 -2 -25 19 -35 42 -19 78 8 82 61 3 39 1 41 -25 40 -15 0 -33
-3 -39 -6z"/>
</g>
</svg>
